<?xml version="1.0" encoding="UTF-8"?>
<svg id="Layer_2" data-name="Layer 2" xmlns="http://www.w3.org/2000/svg" viewBox="0 0 343.87 70.05">
  <defs>
    <style>
      .cls-1 {
        fill: #ff2e50;
      }

      .cls-1, .cls-2, .cls-3 {
        stroke-width: 0px;
      }

      .cls-2 {
        fill: #ff97b7;
      }

      .cls-3 {
        fill: #fff;
      }
    </style>
  </defs>
  <g id="Layer_1-2" data-name="Layer 1">
    <g>
      <g>
        <polygon class="cls-1" points="181.06 70.05 202.08 69.6 200.17 48.73 186.19 53.4 194.89 45 190.32 29.45 183.71 35.29 181.51 29.93 189.94 22.78 179.11 0 176.75 6.82 178.17 13.44 167.08 22.59 168.56 36.97 165.19 45.76 165.19 38.55 156.94 36.41 159.29 42.04 155.52 54.72 152.49 69.6 172.74 70.05 181.06 70.05"/>
        <polygon class="cls-2" points="177.24 65.76 191.25 65.76 190.59 56.06 180.14 59.13 178.82 57.07 186.02 48.65 183.5 41.27 179.26 46.34 174.66 35.11 174.66 47.64 169.08 54.53 164.77 51.41 160.68 65.34 173.03 65.76 177.24 65.76"/>
      </g>
      <path class="cls-3" d="m28.72,16.04l-5.46-.07-5.41-.26-1.88,4.57-.95,5-2.49,4.49-1.42,4.85-1.17,4.93-2.1,4.63-1.16,4.93-2.14,4.61-1.49,4.83-1.25,4.92-1.8,4.99,5.96.33,5.99.36,1.65-4.62.91-4.55,1.59-4.42,5.05-.46,4.97.21,5.18-.2,1.14,4.85,1.2,4.6.94,4.98,5.08-.09,4.79.08,4.38-.55-1.61-4.53-1.93-4.81-1.42-5.01-1.82-4.86-2.3-4.67-1.24-5.08-2.42-4.63-1.31-5.05-2.72-4.51-1.54-4.97-1.82-4.79Zm-11.74,32.73l1.66-4.69,1.82-4.5,2.15-4.38,1.71-5.07,1.25,5.85,1.95,5.17,2.17,5.23-6.46.74-6.26,1.66Z"/>
      <path class="cls-3" d="m323.12,16.1l-5.39-.78-5.54.22-1.35,4.88-1.52,4.81-1.46,4.84-1.63,4.78-2.3,4.56-1.64,4.78-.79,5.06-2.23,4.58-1.36,4.87-1.68,4.77-1.44,4.7,5.61.65,5.52-.51,1.52-3.99,2.09-4.14,1.1-4.5,4.98.06,4.96-.32,5.06-.15,1.22,4.69,1.26,4.58,1.26,4.53,4.73.21,4.79-.11,4.96.15-2.15-4.9-1.95-4.8-1.83-4.85-1.5-4.98-2.49-4.6-.98-5.18-2.03-4.78-2.27-4.68-1.37-5.04-2.28-4.69-1.89-4.72Zm-11.74,32.73l2.31-4.51,1.41-4.67,1.55-4.62,2.09-4.75,2.16,5.39,1.74,5.24,1.11,5.19-6.07,1.02-6.3,1.71Z"/>
      <path class="cls-3" d="m85.08,49.08l4.82-2.16,3.62-3.97,1.57-5.1.51-5.25-1.41-4.71-1.97-4.52-3.7-3.33-4.46-2.08-5.25-1.23-5.48-.08-5.44-.94h-5.49s-5.48.24-5.48.24l-5.22.24.49,4.54.78,4.87.5,4.91-.7,4.95.08,4.91.92,4.91-.24,4.93.35,4.92-.5,4.92.42,4.92-.22,4.54,6.21-.32,6.32.05-.47-4.72.34-4.78-.88-4.74.3-4.79,4,.27,4.05.02,2.64,4.95,3.04,4.6,2.81,4.75,2.39,4.7,4.28-.52,4.43-.33,4.62.34-2.4-4.35-3.24-3.44-1.95-4.28-2.69-3.81-2.26-4.03Zm-3.62-8.84l-5.71.28-5.7.34-5.46.65-.47-5.31-1.03-5.31.18-5.35,4.87.35,5.06.04,4.99.87,5.06.69,2.95,2.85.81,3.85-1.75,3.86-3.81,2.18Z"/>
      <polygon class="cls-3" points="100.58 44.72 100.92 39.51 102.15 34.48 103.42 29.48 105.8 24.92 108.53 20.52 112.74 17.44 117.35 15.46 122.29 14.63 127.25 14.4 132.15 15.02 136.98 16.02 141.25 18.5 144.93 21.8 147.19 25.76 143.27 28.55 139.12 31.55 134.69 33.41 131.35 29.22 126.83 25.91 121.21 26.42 116.25 28.96 113.79 33.97 111.93 39.14 111.41 44.65 112.59 50.18 116.18 53.72 120.22 56.6 124.78 58.57 129.84 58.58 134.49 56.51 138.07 52.72 143.07 55.37 147.68 57.79 144.88 61.67 141.14 65.09 136.47 67.23 131.49 68.88 126.58 68.54 121.73 68.28 116.88 67.51 112.56 65.17 108.48 62.43 105.94 58.22 103.59 54.02 101.78 49.5 100.58 44.72"/>
      <polygon class="cls-3" points="210.21 67.94 209.63 62.77 209.72 57.63 209.47 52.49 209.87 47.34 209.22 42.21 209.27 37.06 209.15 31.92 209.4 26.76 208.5 21.64 209.11 16.8 214.84 17.08 221.04 17.26 223.23 22.12 225.94 26.43 228.76 30.67 231.14 35.18 233.42 39.73 235.86 44.21 238.55 48.43 238.6 43.17 238.67 37.82 239.5 32.51 239.73 27.17 240.13 21.83 239.85 16.26 244.81 16.35 249.77 16.43 249.79 21.79 249.68 26.93 249.32 32.08 248.65 37.21 249.08 42.38 249.05 47.53 248.11 52.66 248.41 57.82 247.97 62.97 248.1 68.21 243.41 68.49 238.63 68.35 236.42 63.79 233.85 59.62 231.63 55.26 228.78 51.26 226.38 47 223.87 42.79 221.67 38.39 222.24 43.48 222.72 48.58 223.59 53.62 224.41 58.67 224.89 63.77 225.39 68.54 220.55 68.43 215.38 68.59 210.21 67.94"/>
      <polygon class="cls-3" points="255.58 69.12 256.83 63.03 257.1 57.16 262.46 58.27 267.8 58.44 267.87 53.74 268.08 48.78 267.91 43.81 268.21 38.85 268.01 33.87 268.33 28.96 262.36 27.9 256.25 27.69 255.58 22.55 255.19 17.41 260.51 17.19 265.84 17.26 271.17 17.23 276.47 16.31 281.83 17.02 287.16 16.77 292.43 16.21 292.27 20.57 291.08 24.84 290.49 28.9 284.72 28.99 279 29.29 279.01 33.95 279.26 38.93 279.78 43.88 279.95 48.86 280.5 53.81 280.85 58.74 286.64 58.7 292.57 59.38 292.1 64.17 290.97 68.53 286.06 69.03 281.03 68.88 276 68.9 270.97 68.54 265.95 69.33 260.9 68.46 255.58 69.12"/>
    </g>
  </g>
</svg>