<svg width="309" height="64" viewBox="0 0 309 64" fill="none" xmlns="http://www.w3.org/2000/svg">
<path d="M32.2626 63.1592C32.0522 63.2963 31.9059 63.0861 31.6956 63.1592C31.6956 63.0222 31.6956 62.8029 31.4853 62.8029C31.5584 62.3095 31.6956 61.7431 31.2749 61.8162C31.0646 60.4731 30.4245 59.4864 30.2873 57.9332C29.8666 57.4399 29.9307 56.8003 29.7935 56.1699C29.6563 55.6035 29.7935 55.1101 29.3728 54.8269C29.1625 53.4838 28.8059 51.7936 28.2389 50.5968C27.6079 50.6698 27.1781 50.3866 26.8946 50.6698C22.5875 50.9531 18.9204 50.2496 14.6133 50.88C13.9823 52.4332 13.269 54.3335 12.2814 55.7496L12.5648 56.0329C11.7875 57.9332 11.4309 59.2763 11.2206 61.4598H10.8639C10.9371 61.5329 11.0743 61.606 11.0011 61.8162C10.6445 61.8162 10.7908 61.8893 10.8639 62.0263C10.7908 62.0263 10.6536 61.9532 10.5073 61.9532C10.5804 62.1633 10.8639 62.0263 10.9279 62.2364C10.9279 62.5197 10.7176 62.6567 10.5073 62.8029C9.09899 62.7298 7.68156 62.9399 6.06295 63.013C6.20012 62.6567 5.98979 62.8029 5.85262 62.5928C5.71545 62.6658 5.77946 62.9491 5.64229 63.0861C3.95052 63.1592 2.18559 63.0861 0.630986 62.8029C0.420657 62.876 0.493815 62.7298 0.493815 62.5928C0.137171 62.5928 0.566973 62.876 0.210329 62.8029C-0.146315 62.5928 0.420657 62.4466 0 62.3826C0.0731577 61.9623 0.493815 61.469 0.210329 61.1858C0.630986 60.9756 0.283486 60.4092 0.777301 60.3361C0.566973 59.7696 1.06079 59.2763 1.13395 58.7098H1.41743C2.68855 54.9 4.59065 50.5237 5.93492 46.0834H6.21841C6.29157 45.6631 6.21841 45.59 6.29157 45.2337H6.50189C6.71222 44.3201 7.20604 42.904 7.35235 41.7802C7.84617 41.7802 7.91933 40.5102 7.91933 40.0169C8.20281 39.8067 8.41314 39.3865 8.27597 38.884C9.83057 34.0874 10.8914 29.0076 12.3728 24.5673C12.3728 24.3572 12.2356 24.3572 12.2356 24.1471C12.7294 23.8639 12.5191 22.804 12.9398 22.5208C13.0769 21.1138 13.8542 19.4875 14.0737 17.9344C14.3572 17.9344 14.3572 17.5781 14.7047 17.5781C14.7779 16.6644 15.3357 16.1711 15.6192 15.0382H15.9027C15.9027 14.6818 16.113 14.5448 16.0398 14.1885C18.2254 14.3255 21.2615 13.9783 23.5202 14.4717C23.5202 14.6818 23.1636 14.3986 23.2367 14.6818C23.3099 14.8189 23.5934 14.5448 23.5934 14.3986C24.6542 14.7549 25.2211 14.1885 26.1356 14.5357C26.4191 14.9559 26.1356 15.7325 26.9129 15.9427C27.2695 16.7192 27.2695 17.2857 27.8274 17.7791C28.1109 18.8389 28.4675 20.392 28.8882 21.726C29.0253 22.2193 29.1716 22.8589 29.6655 23.069C29.4551 23.3522 29.6655 23.7725 29.8026 24.0557C30.2233 25.1155 31.0738 26.2393 31.4304 27.226C31.5676 27.226 31.5676 27.2991 31.5676 27.3631C31.5676 27.5001 31.6407 27.3631 31.7779 27.3631C32.1345 29.6197 33.4057 31.1729 33.8995 33.1464C34.4664 33.996 34.5305 35.3299 35.3078 35.9695C35.7284 36.9562 36.2222 38.5094 36.8624 39.5692C37.219 40.8392 37.6397 42.3923 38.0603 43.4521C37.9872 43.7354 38.1335 44.3658 38.417 44.5759C38.2066 45.2794 38.7004 45.8459 38.7736 46.4763C38.8468 46.6864 38.7004 47.0427 38.7736 47.3259C38.9108 47.7462 39.1943 48.1756 39.2674 48.5959C39.5509 50.4323 40.4014 52.8991 41.0323 54.7995C41.1055 54.9365 41.3158 55.0827 41.3158 55.2928C41.389 55.4299 41.3158 55.6491 41.3158 55.7131C41.389 55.8501 41.5262 55.8501 41.5993 55.9232C41.8097 56.4897 41.8097 57.0561 42.02 57.5495C42.1572 57.7596 42.4406 58.0429 42.4406 58.4631C42.5138 58.6733 42.7973 58.6733 42.9345 58.8194C42.9345 59.8793 43.5654 60.5828 44.0684 61.3594C43.9952 61.4324 43.9312 61.4964 43.8581 61.4964C44.3519 61.8527 44.8457 62.273 44.8457 63.1866C44.4891 63.5429 43.7849 63.3237 43.6477 62.9765C43.0808 63.1866 41.5993 63.0496 40.822 62.9765C40.3282 63.3968 39.4777 63.0496 38.6364 63.0496C37.5025 63.0496 34.7499 63.2597 33.8355 63.3328C33.2045 63.4059 32.7015 63.8262 32.2809 63.1227L32.2626 63.1592ZM16.6617 43.8998C17.3658 43.9729 18.7833 43.4796 19.5606 43.4796C20.3379 43.6897 21.5358 43.2694 22.5966 43.2694C22.7338 43.1963 22.5966 42.9131 22.8801 42.9862C24.2244 42.9131 25.3492 42.6299 26.8306 42.2827C25.9801 39.9529 25.2028 36.7095 24.0049 35.3665C23.8677 34.8 24.0049 33.8133 23.8677 33.2469C23.2276 31.4105 22.5966 29.6471 21.9656 27.9569C21.8284 28.5234 21.3986 29.1538 21.4718 29.6471L20.6213 30.2776C19.6337 33.1007 19.4874 35.7137 18.0791 38.0343C17.5121 40.428 16.0307 41.8442 15.3997 44.4571C15.9667 44.384 16.4605 44.247 16.6708 43.8907L16.6617 43.8998Z" fill="white"/>
<path d="M80.2814 63.3056C78.8731 63.4426 77.9495 63.3787 76.8247 63.5157C74.7763 62.8853 72.7279 63.5888 71.3196 62.0356C71.1093 61.9625 71.1824 62.0356 70.8989 62.0356C70.8989 61.8255 70.8989 61.7524 70.8258 61.6154C69.4815 60.8388 68.6402 59.4957 67.3691 58.5821C67.4422 58.0157 66.8021 57.5954 66.5186 56.9558C66.0248 55.759 65.9517 54.1327 65.0372 53.5023C64.9 52.0953 64.0496 50.8893 63.6929 49.7655C63.1991 49.4092 63.4094 48.4225 62.7053 48.2855C62.9888 47.6459 62.0743 47.2256 62.0011 46.4491C60.8032 46.7323 59.1754 47.3627 57.694 47.1526C57.694 50.6792 57.7671 55.1194 57.9043 59.0755C57.9775 59.4957 58.2609 59.8521 58.325 60.2084C58.6084 61.6885 56.8435 61.6885 55.929 61.7615C55.7919 61.7615 55.929 61.9717 55.7919 61.9717C55.3712 61.7615 55.0146 62.1087 54.7311 62.1818C54.5939 62.2549 54.6579 62.0448 54.5939 62.0448C54.1733 62.0448 53.6794 62.328 53.0393 62.328C52.3992 62.4011 51.7682 62.4011 51.1372 62.328C51 62.4011 51.0641 62.6112 50.9269 62.6112C49.7289 62.328 49.162 62.8944 48.1012 62.9675C47.5342 62.4011 48.1743 61.6976 47.6805 61.2773C47.6805 60.857 47.7537 60.4276 47.5433 60.2906C48.0372 56.764 47.8268 53.4475 47.8268 49.9209C47.8268 49.4275 47.6897 48.9341 47.6897 48.4408C47.6897 47.2439 47.9731 46.1841 48.1103 44.9141C48.1103 44.7771 47.9 44.6309 47.9 44.4939C47.9731 44.0005 48.2566 43.5802 48.1835 43.0869C48.1835 42.8767 47.9731 42.9498 47.9 42.8767C47.9731 42.7397 48.0372 42.8037 48.1835 42.7397C48.467 36.6001 48.3206 29.4737 47.6897 22.9139C47.6165 22.4205 47.4062 21.9271 47.4062 21.3607C47.333 20.511 47.6897 19.5974 47.4062 18.8208C47.6165 18.1173 47.4793 17.2676 47.5433 16.5641C47.5433 16.4271 47.4062 16.491 47.333 16.491C47.333 16.0707 47.4062 15.8606 47.5433 15.4312C49.1711 15.6413 50.4422 15.0109 52.134 15.0109C52.134 15.084 52.0608 15.084 52.0608 15.148C54.1092 15.2211 55.8742 15.0109 57.7123 15.0749C58.3432 15.0749 59.0565 14.6546 59.7607 14.6546C59.971 14.6546 60.3277 14.7917 60.6111 14.6546C61.8091 14.2983 63.0802 14.3714 64.5617 14.2983C66.4638 14.1613 68.3018 14.2252 70.2771 14.7186C71.6854 14.8556 73.5235 15.1388 74.5111 15.9885C75.4987 16.1256 76.4132 16.555 77.0533 16.8382C77.1265 16.9113 77.1265 16.7012 77.1265 16.7012C77.5472 16.9113 77.9038 17.4047 78.4708 17.2676C78.8274 17.9711 80.0254 17.898 80.3089 18.8208C80.5192 18.8939 80.6655 18.9578 80.8758 18.9578C80.949 19.7344 82.0098 20.6481 82.0738 21.4246C83.2717 23.261 83.1346 26.2212 83.5552 27.9845C83.3449 28.3408 83.3449 28.2678 83.6284 28.4048C83.7015 29.8118 84.2594 31.7944 83.4181 33.2014C83.6284 35.1017 82.7871 36.8742 81.4428 38.2081C81.2325 39.1948 80.8758 39.6151 80.5923 40.4648C79.6047 40.9581 79.2481 42.0179 78.4708 42.6483C77.2728 42.6483 76.5687 43.498 75.6451 43.8452C74.3008 44.3386 72.8193 44.4117 71.2647 44.7588C72.1792 45.8917 73.3132 47.2256 73.4503 48.9159C73.7338 49.2722 73.7338 49.4823 73.9441 49.9757C74.1545 50.0488 74.3648 50.6792 74.7946 50.7523C74.7214 50.8254 74.7214 50.8893 74.6574 50.8893C75.8554 51.876 76.1389 53.6393 76.9893 54.9093C77.9038 56.1792 79.3212 55.9691 81.4337 56.0422C81.8543 56.2523 82.211 56.6087 82.6316 56.3254C82.7688 56.5356 82.9883 56.6817 83.1254 56.8919C82.9151 58.0248 82.275 59.0115 81.9275 59.9982C81.9275 60.1353 82.0006 60.3545 81.9275 60.4916C81.7903 60.8479 81.5068 61.122 81.4337 61.5514C81.2965 62.328 81.7903 63.2416 81.077 63.5979C80.8667 63.5249 80.446 63.5249 80.2997 63.3147L80.2814 63.3056ZM54.0818 61.9625C53.8715 62.0356 53.5148 61.9625 53.5148 62.1727C53.7252 62.0996 54.0087 62.1727 54.0818 61.9625ZM61.4982 36.7828C63.2631 36.8559 65.6682 36.9199 67.9909 36.6458C69.829 36.5087 71.1001 35.7961 72.4353 35.0926C73.2126 33.5394 73.9167 31.703 74.063 29.6565C74.2733 27.3998 74.2002 23.8001 71.4476 23.0235C70.5972 22.8134 69.6095 22.6672 68.7682 22.6032C67.9909 22.4662 67.424 22.6032 66.9301 22.6032C66.5735 22.6032 66.226 22.3931 65.8694 22.32C62.9065 22.1099 59.6601 22.183 56.7612 22.8134C57.6757 24.7137 58.5993 27.2536 58.6633 29.7296C58.6633 30.8625 59.1571 32.1964 58.9468 33.2562C59.7241 34.316 59.5138 35.586 60.0076 36.929C60.5014 37.0021 60.9952 36.929 61.489 36.7919L61.4982 36.7828Z" fill="white"/>
<path d="M108.237 63.3701C106.828 63.3701 105.557 63.0869 104.003 63.0869C104.003 63.0138 104.076 63.0138 104.076 62.9498C102.942 62.8128 101.46 62.1732 100.189 61.6799C98.2141 60.2729 96.2389 58.6466 94.4008 56.8102L94.6111 56.6001C93.6235 55.7504 93.1296 54.4165 92.3523 53.4298C92.2792 53.3567 92.0689 53.3567 91.9957 53.2927C91.9225 53.1557 91.8585 52.7263 91.7854 52.5892C91.5751 52.2329 91.3647 51.6756 91.0812 51.2462C90.8709 50.8899 90.5143 50.7528 90.3039 50.3965C90.1668 50.1133 90.1668 49.693 90.0204 49.3367C89.9473 49.2636 89.737 49.1996 89.6638 49.1265C89.17 48.0667 88.9597 46.7328 88.5299 45.673C88.5299 45.536 88.3927 45.3898 88.2464 45.3898C88.5299 45.1796 88.2464 44.8233 88.3835 44.6132C87.5331 43.3432 87.8166 41.3698 87.3228 39.6796C87.7434 39.3964 87.2496 38.4096 87.6062 37.9894C87.6062 37.9163 87.4691 37.9163 87.3228 37.9163C87.6062 37.4229 87.7434 36.5093 87.3228 35.7966H87.6062C87.6062 34.7368 87.9629 33.7501 87.7434 32.6903C87.8806 32.6172 87.8806 32.6903 88.0269 32.6903C88.0269 31.4934 88.3835 31.064 88.4476 29.9403C88.731 29.9403 88.5847 29.4469 88.8682 29.3738C89.2889 26.3405 91.6939 24.6503 92.6084 21.9003C93.6692 20.7034 94.3733 19.3604 95.7176 18.3737C95.9279 18.0173 96.2114 17.524 96.4218 17.3138C97.1991 16.4642 98.1135 16.4002 99.0371 15.7607C100.308 15.4043 102.073 15.1303 103.911 14.847C106.81 14.2806 109.7 13.5771 112.242 13.2208C113.934 13.0106 116.339 13.9974 118.314 13.9974C119.092 13.9974 119.512 13.8603 120.006 14.5638H120.5C121.487 15.4774 123.179 16.3271 124.807 16.6103C125.374 17.1037 126.078 17.524 126.572 18.0173C126.499 18.3737 126.855 18.2275 126.782 18.5838C128.126 19.4335 128.968 21.2607 129.608 22.6038C130.029 22.4667 130.312 22.887 130.458 22.7408C130.669 23.8006 129.398 23.9377 128.767 24.5041C128.346 24.8605 128.126 25.4178 127.569 25.8472C127.431 25.9842 127.148 26.0573 127.002 26.2035C126.508 26.5598 125.941 26.907 125.164 27.2633C125.026 27.2633 125.09 27.4004 125.09 27.4734C124.523 27.6105 124.103 27.8937 123.609 28.1038C121.844 29.0175 120.152 29.9403 118.177 30.5707C117.537 30.2143 117.61 29.0906 117.263 28.451C117.189 28.3779 116.842 28.314 116.622 28.0947C115.562 25.5548 112.672 24.7782 109.846 24.0016C108.648 23.2981 105.96 23.9285 104.689 24.5681C103.911 24.9884 103.491 25.9111 102.713 26.0482C102.503 26.9618 100.875 27.245 100.811 28.2318C99.5401 29.1454 100.034 30.4153 99.0463 31.8954C98.6256 32.5258 98.6256 33.1654 98.269 34.0151C97.9123 34.7916 97.071 35.3581 97.2814 36.1986C96.9979 36.4819 97.071 37.8249 97.2082 38.1721C96.9979 39.7253 96.8516 41.9819 97.4185 42.7585C97.2082 42.9687 97.2814 42.9687 97.2082 43.1788C98.6165 44.869 98.4793 47.1257 100.107 48.3317C100.958 50.1681 103.07 50.8716 104.981 51.9314C106.746 52.845 108.721 53.9779 111.41 53.6947C111.483 53.9048 111.337 53.9048 111.337 54.051C114.163 53.6947 116.348 53.0643 118.89 51.6573C119.027 51.237 119.457 51.1639 119.741 50.9538C119.814 50.8807 119.741 50.7437 119.814 50.6706C119.887 50.5335 120.235 50.4604 120.381 50.3143C120.591 50.1041 120.664 49.7478 121.158 49.7478C121.085 49.1083 121.515 48.9712 121.579 48.4779C123.344 48.551 123.975 50.1681 125.74 50.031C125.603 50.5244 126.16 50.1681 126.654 50.3874C126.791 50.6706 126.581 50.6706 126.791 50.8807H127.431C127.294 51.0178 127.294 51.0909 127.431 51.237C127.642 51.0269 128.062 51.1639 128.346 51.237C128.346 51.237 128.273 51.3101 128.273 51.4472C128.767 51.8035 129.965 52.0776 130.532 52.644C130.458 54.051 129.544 55.321 128.84 56.3808H128.419C128.209 56.5909 128.556 56.4539 128.556 56.7371C127.002 58.0801 125.026 58.9938 123.545 60.3368C122.484 60.547 121.643 60.9764 120.792 61.3966C119.594 61.3966 117.83 62.3834 116.348 62.1732C115.927 62.5935 115.434 62.4565 114.867 62.5935C113.733 62.8036 112.965 63.5071 111.968 63.7264C111.337 63.8726 110.203 64.0096 109.572 63.8726C109.151 63.7995 108.721 63.4523 108.228 63.3792L108.237 63.3701Z" fill="white"/>
<path d="M192.158 62.8766C191.664 63.1598 191.308 62.8766 190.677 62.9497C190.677 62.6665 190.11 62.8766 190.046 62.6665C189.689 62.9497 189.131 62.5934 188.491 62.5294C188.071 62.5294 187.641 62.6025 187.504 62.0361C187.43 61.6158 187.787 60.8392 187.86 60.3458C187.933 58.5825 187.933 56.1888 187.86 53.923C187.723 50.4695 188.217 47.5002 187.293 44.1837C187.366 42.7036 186.873 40.52 187.083 39.1039C187.156 38.8937 186.662 39.177 186.799 38.8207H187.01C186.937 38.2542 187.083 37.1944 186.799 36.4909C187.01 35.0108 187.083 32.3978 186.726 31.1279C187.147 28.4509 186.443 26.2582 186.937 24.2117C186.937 24.0746 186.799 24.1386 186.726 24.0746C187.147 21.4616 186.799 18.2913 186.232 15.0479C186.232 14.8378 186.443 14.8378 186.443 14.6916C188.208 15.0479 189.479 14.1252 191.033 14.3353C191.244 14.4084 191.244 14.1982 191.454 14.1982C192.369 14.2713 192.798 14.5546 193.786 14.6916C193.923 14.6916 193.996 14.6185 193.996 14.4084C194.563 14.7647 195.551 14.6185 195.972 14.7647C196.255 14.9017 196.182 15.2581 196.612 15.2581C196.539 15.5413 196.822 16.0346 197.179 16.1077C197.105 16.9574 197.956 17.5147 198.093 18.5015C198.45 19.205 198.733 20.0546 199.501 20.4018C199.145 20.5389 200.352 21.955 200.699 22.3753C201.056 22.7955 201.193 23.362 201.404 23.7183C202.181 25.0613 203.242 26.3313 203.735 27.0348C204.229 27.7383 204.586 28.3778 205.007 28.9351C205.08 29.0082 205.144 29.0082 205.29 29.0082C205.363 29.5747 206.067 30.2051 206.278 30.9086C207.832 32.882 209.103 34.8555 210.164 37.3314C210.237 37.4685 210.301 37.6147 210.521 37.6147C210.594 38.1811 211.161 39.1678 211.371 39.9444L211.444 40.2276C211.801 41.0773 212.011 41.9179 212.578 42.6214C212.578 43.535 213.356 43.471 213.429 44.3116C213.712 44.2385 213.356 43.6081 213.785 43.7451C213.292 42.8955 213.859 41.7717 213.575 40.9951C213.502 40.785 213.648 40.7119 213.785 40.7119C213.785 40.6388 213.648 40.6388 213.575 40.6388C213.712 39.7251 213.502 39.3688 213.648 38.4552C213.785 38.4552 213.932 38.4552 214.005 38.3821C213.584 38.2451 213.721 37.9618 213.648 37.4685C213.785 37.4685 213.785 37.5416 213.859 37.6055C214.069 37.5324 213.575 37.1852 213.932 37.1852C213.795 37.1122 213.721 36.9751 213.648 36.8289C213.932 35.2027 214.069 33.5124 214.279 31.7491C214.279 31.676 214.206 31.6121 214.069 31.6121C214.352 31.1187 214.279 30.5523 214.279 29.9219C214.416 29.8488 214.416 29.995 214.416 30.132C214.7 29.7757 214.06 29.3554 214.563 29.1453C213.923 29.0082 214.636 28.0855 214.206 28.0124C214.279 27.8022 214.279 27.6561 214.416 27.519C214.49 24.5588 214.416 22.7955 214.7 19.8262C214.343 18.6294 215.331 16.5828 214.7 15.1667C215.057 14.3901 216.748 15.0296 217.032 14.5363C219.08 14.3992 220.982 14.8926 223.461 15.1667C223.607 15.3768 223.607 15.6601 223.671 15.9433C223.387 16.7199 223.177 17.9167 223.031 19.0496C222.958 20.1094 222.747 21.3063 222.674 22.5032C222.537 24.1934 222.253 25.8197 222.537 27.0165C222.18 27.8662 222.464 29.2732 222.537 30.2599C222.537 30.333 222.327 30.333 222.327 30.333C222.253 30.9634 222.537 31.676 222.537 32.2334C222.464 33.3663 222.043 34.5631 222.4 35.9701C222.327 38.0897 222.116 39.5698 222.189 42.4569C222.263 45.4902 222.756 48.5965 222.327 50.7801C222.4 50.9172 222.4 51.2004 222.537 51.2735C222.043 52.7536 222.537 55.7868 222.4 57.7603C222.4 58.5369 222.116 59.5967 222.189 59.9438C222.189 60.0169 222.263 62.0635 222.052 62.2005C222.052 62.4837 219.867 62.4107 218.879 62.4107C218.248 62.4107 217.535 62.2005 216.977 62.2736C215.989 62.4107 214.224 62.8401 213.657 62.1366C213.584 60.8666 212.743 60.4463 212.807 59.4596C212.24 59.1033 212.313 58.3998 211.957 57.8334C211.536 57.1299 210.612 57.0568 210.402 56.2071C210.192 56.2071 210.045 56.134 209.981 56.07C209.771 55.5036 209.625 54.9371 208.92 54.59C208.994 54.2336 208.637 53.7403 208.28 53.5301C208.07 52.8266 207.713 52.1231 207.146 51.6298C207.146 51.3466 206.936 51.2735 206.863 51.0633C206.863 50.9263 206.726 50.8532 206.579 50.8532C206.653 50.7162 206.506 50.2867 206.159 50.2867C206.159 49.7934 206.022 49.5102 205.528 49.4371C205.317 48.2402 204.046 47.4636 203.973 46.2668C203.059 45.7734 202.986 44.2202 202.135 43.8C201.641 42.2468 200.37 40.6936 199.803 38.9303C199.803 38.7932 199.657 38.8572 199.593 38.7932C199.52 38.4369 199.456 38.0167 199.099 37.8796C199.099 37.7426 199.172 37.7426 199.236 37.7426C199.163 37.5324 198.953 37.3862 198.669 37.3223C198.816 36.2625 198.175 36.1254 197.965 35.0656C197.682 35.9153 198.249 36.966 197.892 37.6786C197.892 37.7517 198.029 37.7517 198.175 37.7517C197.819 39.6521 198.742 41.6986 198.88 43.8182C199.511 47.0616 199.794 49.6746 200.718 52.4977C201.138 56.3076 201.705 59.8342 201.632 62.8675C201.211 63.1507 200.434 63.0045 200.151 63.3608C199.447 63.0045 198.523 63.2238 197.819 63.571C195.917 63.4979 193.795 63.571 192.167 62.8675L192.158 62.8766Z" fill="white"/>
<path d="M245.599 63.3694C245.462 63.3694 245.462 63.2324 245.462 63.0862C244.328 63.1593 243.277 63.2233 242.353 62.9492C240.021 63.4425 238.896 63.1593 236.144 63.0862C234.306 63.0862 234.735 63.2963 233.528 63.2963C233.108 63.2963 232.824 63.3694 232.33 63.4334C231.91 63.5065 231.48 63.5065 231.27 63.2232C230.419 63.2232 229.715 63.5065 229.221 62.94C229.294 61.9533 229.925 61.1036 229.432 60.2631C230.282 58.2896 229.505 55.3295 229.852 53.2098C230.273 52.9266 230.136 52.6434 230.273 52.15L230.767 51.8668C232.038 52.3602 233.876 53.3469 235.851 53.3469C236.135 53.3469 236.061 53.557 236.208 53.6301C236.839 53.1367 238.75 54.0504 240.305 53.6301C240.231 53.557 240.167 53.557 240.021 53.557C240.378 53.42 240.094 52.2871 240.094 51.5105C240.094 49.9573 239.811 48.194 239.811 46.787C239.811 45.0968 240.094 42.0635 240.094 40.0901C240.094 39.7337 240.021 39.5967 240.094 39.3135C240.231 38.8932 240.167 38.2537 240.167 37.7603C240.167 34.1606 240.451 29.9305 240.661 26.4038C239.884 26.2668 238.119 26.5409 237.762 25.8374L237.122 26.0475C233.949 25.8374 234.443 24.9146 230.84 25.408C230.346 25.4811 229.989 25.6912 229.569 25.2709C229.642 24.8507 229.642 24.7045 229.569 24.2842C229.642 24.2842 229.706 24.3573 229.852 24.3573C229.285 23.7269 229.432 22.8772 229.496 22.2377C229.002 19.9079 229.002 18.5009 228.581 15.8879C228.791 15.6778 229.075 15.7509 229.358 15.8879C234.086 15.7509 235.074 15.2484 240.158 15.3215C244.539 15.3946 249.056 14.6911 253.29 14.9012C253.574 14.9743 253.921 14.9012 254.278 14.9012C257.524 15.0382 257.945 13.6312 261.2 14.5449C261.557 14.1246 262.398 14.4078 262.682 14.755L262.398 15.4585C262.609 15.6687 262.535 15.8788 262.398 16.162C263.176 17.3589 262.398 18.839 262.398 20.3921C262.398 20.6754 262.042 25.2618 261.694 26.2485C261.484 26.3856 261.2 26.4587 261.063 26.6688C260.213 26.2485 256.683 26.3856 255.622 26.5317C255.265 26.4587 255.485 26.815 255.201 26.7419C255.201 26.6688 255.201 26.5317 255.128 26.5317C253.574 26.5317 251.598 26.6048 250.117 26.4587C249.833 28.9986 250.473 30.6888 250.473 33.7951C250.473 33.9322 250.757 33.8682 250.757 34.0053C251.114 35.8417 250.903 37.6689 251.04 39.3683C251.178 40.9946 251.251 42.4016 251.461 43.9547C251.534 44.8044 250.967 45.4348 250.967 46.1383C250.967 46.2754 251.178 46.2114 251.178 46.2754C251.315 46.6317 251.251 47.4083 251.251 47.9016C251.534 49.9482 252.312 51.7846 252.028 53.6849C255.485 54.0412 256.619 54.4615 260.496 53.4748C260.78 53.4017 260.496 53.5479 260.569 53.6849C260.926 53.758 261.063 53.5387 261.347 53.5387C261.63 53.8951 262.197 54.1052 262.618 54.3884C262.545 56.572 262.334 57.4948 262.334 59.4682C261.63 60.3818 261.694 61.5148 261.42 62.7116C260.716 63.2781 253.162 63.2781 251.671 63.4151C250.611 63.4882 249.769 63.6252 248.992 63.5522C248.425 63.4791 247.794 63.1319 247.364 63.5522C246.944 63.2689 246.23 63.342 245.599 63.342V63.3694Z" fill="white"/>
<path d="M296.435 63.1592C296.225 63.2963 296.078 63.0861 295.868 63.1592C295.868 63.0222 295.868 62.8029 295.658 62.8029C295.731 62.3095 295.868 61.7431 295.447 61.8162C295.237 60.4731 294.597 59.4864 294.46 57.9332C294.039 57.4399 294.103 56.8003 293.966 56.1699C293.829 55.6035 293.966 55.1101 293.545 54.8269C293.335 53.4838 292.978 51.7936 292.411 50.5968C291.771 50.6698 291.35 50.3866 291.067 50.6698C286.76 50.9531 283.093 50.2496 278.786 50.88C278.145 52.4332 277.441 54.3335 276.454 55.7496L276.737 56.0329C275.96 57.9332 275.603 59.2763 275.393 61.4598H275.036C275.109 61.5329 275.247 61.606 275.173 61.8162C274.817 61.8162 274.963 61.8893 275.036 62.0263C274.963 62.0263 274.826 61.9532 274.68 61.9532C274.753 62.1633 275.036 62.0263 275.1 62.2364C275.1 62.5197 274.89 62.6567 274.68 62.8029C273.271 62.7298 271.854 62.9399 270.235 63.013C270.372 62.6567 270.162 62.8029 270.025 62.5928C269.888 62.6658 269.952 62.9491 269.815 63.0861C268.123 63.1592 266.358 63.0861 264.803 62.8029C264.593 62.876 264.666 62.7298 264.666 62.5928C264.31 62.5928 264.739 62.876 264.383 62.8029C264.026 62.5928 264.593 62.4466 264.172 62.3826C264.246 61.9623 264.666 61.469 264.383 61.1858C264.803 60.9756 264.456 60.4092 264.95 60.3361C264.739 59.7696 265.233 59.2763 265.306 58.7098H265.59C266.861 54.9 268.763 50.5237 270.107 46.0834H270.391C270.464 45.6631 270.391 45.59 270.464 45.2337H270.674C270.885 44.3201 271.378 42.904 271.525 41.7802C272.019 41.7802 272.092 40.5102 272.092 40.0169C272.375 39.8067 272.585 39.3865 272.448 38.884C274.003 34.0874 275.064 29.0076 276.545 24.5673C276.545 24.3572 276.399 24.3572 276.399 24.1471C276.893 23.8639 276.682 22.804 277.103 22.5208C277.24 21.1138 278.017 19.4875 278.237 17.9344C278.52 17.9344 278.52 17.5781 278.877 17.5781C278.95 16.6644 279.508 16.1711 279.792 15.0382H280.075C280.075 14.6818 280.285 14.5448 280.212 14.1885C282.398 14.3255 285.434 13.9783 287.693 14.4717C287.693 14.6818 287.336 14.3986 287.409 14.6818C287.482 14.8189 287.766 14.5448 287.766 14.3986C288.827 14.7549 289.393 14.1885 290.308 14.5357C290.591 14.9559 290.308 15.7325 291.085 15.9427C291.442 16.7192 291.442 17.2857 292 17.7791C292.283 18.8389 292.64 20.392 293.061 21.726C293.198 22.2193 293.344 22.8589 293.838 23.069C293.628 23.3522 293.838 23.7725 293.975 24.0557C294.396 25.1155 295.246 26.2393 295.603 27.226C295.749 27.226 295.749 27.2991 295.749 27.3631C295.749 27.5001 295.822 27.3631 295.959 27.3631C296.316 29.6197 297.587 31.1729 298.081 33.1464C298.648 33.996 298.712 35.3299 299.489 35.9695C299.91 36.9562 300.404 38.5094 301.044 39.5692C301.401 40.8392 301.821 42.3923 302.242 43.4521C302.169 43.7354 302.315 44.3658 302.598 44.5759C302.388 45.2794 302.882 45.8459 302.955 46.4763C303.028 46.6864 302.882 47.0427 302.955 47.3259C303.092 47.7462 303.376 48.1756 303.449 48.5959C303.732 50.4323 304.583 52.8991 305.214 54.7995C305.287 54.9365 305.497 55.0827 305.497 55.2928C305.571 55.4299 305.497 55.6491 305.497 55.7131C305.571 55.8501 305.708 55.8501 305.781 55.9232C305.991 56.4897 305.991 57.0561 306.201 57.5495C306.339 57.7596 306.622 58.0429 306.622 58.4631C306.695 58.6733 306.979 58.6733 307.116 58.8194C307.116 59.8793 307.747 60.5828 308.25 61.3594C308.177 61.4324 308.113 61.4964 308.04 61.4964C308.533 61.8527 309.027 62.273 309.027 63.1866C308.671 63.5429 307.966 63.3237 307.829 62.9765C307.262 63.1866 305.781 63.0496 305.004 62.9765C304.51 63.3968 303.659 63.0496 302.818 63.0496C301.684 63.0496 298.931 63.2597 298.017 63.3328C297.377 63.4059 296.883 63.8262 296.462 63.1227L296.435 63.1592ZM280.834 43.8998C281.538 43.9729 282.956 43.4796 283.733 43.4796C284.51 43.6897 285.708 43.2694 286.769 43.2694C286.906 43.1963 286.769 42.9131 287.052 42.9862C288.397 42.9131 289.522 42.6299 291.003 42.2827C290.153 39.9529 289.375 36.7095 288.177 35.3665C288.04 34.8 288.177 33.8133 288.04 33.2469C287.4 31.4105 286.769 29.6471 286.138 27.9569C286.001 28.5234 285.571 29.1538 285.644 29.6471L284.794 30.2776C283.806 33.1007 283.66 35.7137 282.251 38.0343C281.684 40.428 280.203 41.8442 279.572 44.4571C280.139 44.384 280.633 44.247 280.843 43.8907L280.834 43.8998Z" fill="white"/>
<path d="M160.801 64L180.023 63.5889L178.276 44.5213L165.492 48.788L173.448 41.1135L169.278 26.9065L163.224 32.2421L161.212 27.345L168.921 20.8126L159.018 0L156.869 6.23098L158.158 12.2792L148.016 20.639L149.37 33.777L146.288 41.8078V35.2206L138.744 33.2654L140.902 38.4091L137.445 49.994L134.674 63.5889L153.192 64H160.801Z" fill="#FF2E50"/>
<path d="M157.308 60.081H170.119L169.516 51.2187L159.96 54.0236L158.753 52.1415L165.337 44.4487L163.032 37.7061L159.155 42.3382L154.948 32.0781V43.5259L149.846 49.8209L145.904 46.9703L142.164 59.6972L153.458 60.081H157.308Z" fill="#FF97B7"/>
</svg>
