<svg width="504" height="504" viewBox="0 0 504 504" fill="none" xmlns="http://www.w3.org/2000/svg">
<path fill-rule="evenodd" clip-rule="evenodd" d="M252 504C285.093 504 317.862 497.482 348.436 484.818C379.01 472.153 406.791 453.591 430.191 430.191C453.591 406.791 472.153 379.01 484.818 348.436C497.482 317.862 504 285.093 504 252C504 218.907 497.482 186.138 484.818 155.564C472.153 124.99 453.591 97.2094 430.191 73.8091C406.791 50.4087 379.01 31.8465 348.436 19.1824C317.862 6.51817 285.093 -4.93126e-07 252 0C185.165 9.95913e-07 121.068 26.5499 73.8091 73.8091C26.5499 121.068 0 185.165 0 252C0 318.835 26.5499 382.932 73.8091 430.191C121.068 477.45 185.165 504 252 504ZM245.504 353.92L385.504 185.92L342.496 150.08L222.096 294.532L159.796 232.204L120.204 271.796L204.204 355.796L225.876 377.468L245.504 353.92Z" fill="#419044"/>
</svg>
