<?xml version="1.0" encoding="UTF-8"?>
<svg id="Layer_2" data-name="Layer 2" xmlns="http://www.w3.org/2000/svg" viewBox="0 0 337.9 70.05">
  <defs>
    <style>
      .cls-1, .cls-2, .cls-3 {
        stroke-width: 0px;
      }

      .cls-2 {
        fill: #645ce6;
      }

      .cls-3 {
        fill: #a7a9ff;
      }
    </style>
  </defs>
  <g id="Layer_1-2" data-name="Layer 1">
    <g>
      <polygon class="cls-2" points="175.84 70.05 196.86 69.6 194.95 48.73 180.97 53.4 189.67 45 185.11 29.45 178.49 35.29 176.29 29.93 184.72 22.78 173.89 0 171.54 6.82 172.95 13.44 161.86 22.59 163.34 36.97 159.97 45.76 159.97 38.55 151.72 36.41 154.08 42.04 150.3 54.72 147.27 69.6 167.52 70.05 175.84 70.05"/>
      <polygon class="cls-3" points="172.02 65.76 186.03 65.76 185.37 56.06 174.92 59.13 173.6 57.07 180.8 48.65 178.28 41.27 174.04 46.34 169.44 35.11 169.44 47.64 163.86 54.53 159.55 51.41 155.46 65.34 167.81 65.76 172.02 65.76"/>
      <path class="cls-1" d="m35.28,69.13c-.23.15-.39-.08-.62,0,0-.15,0-.39-.23-.39.08-.54.23-1.16-.23-1.08-.23-1.47-.93-2.55-1.08-4.25-.46-.54-.39-1.24-.54-1.93-.15-.62,0-1.16-.46-1.47-.23-1.47-.62-3.32-1.24-4.63-.69.08-1.16-.23-1.47.08-4.71.31-8.72-.46-13.43.23-.69,1.7-1.47,3.78-2.55,5.33l.31.31c-.85,2.08-1.24,3.55-1.47,5.94h-.39c.08.08.23.16.15.39-.39,0-.23.08-.15.23-.08,0-.23-.08-.39-.08.08.23.39.08.46.31,0,.31-.23.46-.46.62-1.54-.08-3.09.15-4.86.23.15-.39-.08-.23-.23-.46-.15.08-.08.39-.23.54-1.85.08-3.78,0-5.48-.31-.23.08-.15-.08-.15-.23-.39,0,.08.31-.31.23-.39-.23.23-.39-.23-.46.08-.46.54-1,.23-1.31.46-.23.08-.85.62-.93-.23-.62.31-1.16.39-1.78h.31c1.39-4.17,3.47-8.96,4.94-13.82h.31c.08-.46,0-.54.08-.93h.23c.23-1,.77-2.55.93-3.78.54,0,.62-1.39.62-1.93.31-.23.54-.69.39-1.24,1.7-5.25,2.86-10.81,4.48-15.67,0-.23-.15-.23-.15-.46.54-.31.31-1.47.77-1.78.15-1.54,1-3.32,1.24-5.02.31,0,.31-.39.69-.39.08-1,.69-1.54,1-2.78h.31c0-.39.23-.54.15-.93,2.39.15,5.71-.23,8.18.31,0,.23-.39-.08-.31.23.08.15.39-.15.39-.31,1.16.39,1.78-.23,2.78.15.31.46,0,1.31.85,1.54.39.85.39,1.47,1,2.01.31,1.16.7,2.86,1.16,4.32.15.54.31,1.24.85,1.47-.23.31,0,.77.15,1.08.46,1.16,1.39,2.39,1.78,3.47.15,0,.15.08.15.15,0,.15.08,0,.23,0,.39,2.47,1.78,4.17,2.32,6.33.62.93.69,2.39,1.54,3.09.46,1.08,1,2.78,1.7,3.94.39,1.39.85,3.09,1.31,4.25-.08.31.08,1,.39,1.23-.23.77.31,1.39.39,2.08.08.23-.08.62,0,.93.15.46.46.93.54,1.39.31,2.01,1.24,4.71,1.93,6.79.08.15.31.31.31.54.08.15,0,.39,0,.46.08.15.23.15.31.23.23.62.23,1.24.46,1.78.15.23.46.54.46,1,.08.23.39.23.54.39,0,1.16.69,1.93,1.24,2.78-.08.08-.15.15-.23.15.54.39,1.08.85,1.08,1.85-.39.39-1.16.15-1.31-.23-.62.23-2.24.08-3.09,0-.54.46-1.47.08-2.39.08-1.24,0-4.25.23-5.25.31-.69.08-1.24.54-1.7-.23Zm-17.06-21.08c.77.08,2.32-.46,3.17-.46.85.23,2.16-.23,3.32-.23.15-.08,0-.39.31-.31,1.47-.08,2.7-.39,4.32-.77-.93-2.55-1.78-6.1-3.09-7.57-.15-.62,0-1.7-.15-2.32-.7-2.01-1.39-3.94-2.08-5.79-.15.62-.62,1.31-.54,1.85l-.93.69c-1.08,3.09-1.24,5.95-2.78,8.49-.62,2.62-2.24,4.17-2.93,7.03.62-.08,1.16-.23,1.39-.62Z"/>
      <path class="cls-1" d="m87.79,69.29c-1.54.15-2.55.08-3.78.23-2.24-.69-4.48.08-6.02-1.62-.23-.08-.15,0-.46,0,0-.23,0-.31-.08-.46-1.47-.85-2.39-2.32-3.78-3.32.08-.62-.62-1.08-.93-1.78-.54-1.31-.62-3.09-1.62-3.78-.15-1.54-1.08-2.86-1.47-4.09-.54-.39-.31-1.47-1.08-1.62.31-.7-.69-1.16-.77-2.01-1.31.31-3.09,1-4.71.77,0,3.86.08,8.72.23,13.05.08.46.39.85.46,1.24.31,1.62-1.62,1.62-2.62,1.7-.15,0,0,.23-.15.23-.46-.23-.85.15-1.16.23-.15.08-.08-.15-.15-.15-.46,0-1,.31-1.7.31-.7.08-1.39.08-2.08,0-.15.08-.08.31-.23.31-1.31-.31-1.93.31-3.09.39-.62-.62.08-1.39-.46-1.85,0-.46.08-.93-.15-1.08.54-3.86.31-7.49.31-11.35,0-.54-.15-1.08-.15-1.62,0-1.31.31-2.47.46-3.86,0-.15-.23-.31-.23-.46.08-.54.39-1,.31-1.54,0-.23-.23-.15-.31-.23.08-.15.15-.08.31-.15.31-6.72.15-14.52-.54-21.7-.08-.54-.31-1.08-.31-1.7-.08-.93.31-1.93,0-2.78.23-.77.08-1.7.15-2.47,0-.15-.15-.08-.23-.08,0-.46.08-.69.23-1.16,1.78.23,3.17-.46,5.02-.46,0,.08-.08.08-.08.15,2.24.08,4.17-.15,6.18-.08.69,0,1.47-.46,2.24-.46.23,0,.62.15.93,0,1.31-.39,2.7-.31,4.32-.39,2.08-.15,4.09-.08,6.25.46,1.54.15,3.55.46,4.63,1.39,1.08.15,2.08.62,2.78.93.08.08.08-.15.08-.15.46.23.85.77,1.47.62.39.77,1.7.69,2.01,1.7.23.08.39.15.62.15.08.85,1.24,1.85,1.31,2.7,1.31,2.01,1.16,5.25,1.62,7.18-.23.39-.23.31.08.46.08,1.54.69,3.71-.23,5.25.23,2.08-.69,4.02-2.16,5.48-.23,1.08-.62,1.54-.93,2.47-1.08.54-1.47,1.7-2.32,2.39-1.31,0-2.08.93-3.09,1.31-1.47.54-3.09.62-4.79,1,1,1.24,2.24,2.7,2.39,4.55.31.39.31.62.54,1.16.23.08.46.77.93.85-.08.08-.08.15-.15.15,1.31,1.08,1.62,3.01,2.55,4.4,1,1.39,2.55,1.16,4.86,1.24.46.23.85.62,1.31.31.15.23.39.39.54.62-.23,1.24-.93,2.32-1.31,3.4,0,.15.08.39,0,.54-.15.39-.46.69-.54,1.16-.15.85.39,1.85-.39,2.24-.23-.08-.69-.08-.85-.31Zm-28.65-1.47c-.23.08-.62,0-.62.23.23-.08.54,0,.62-.23Zm8.11-27.56c1.93.08,4.56.15,7.1-.15,2.01-.15,3.4-.93,4.86-1.7.85-1.7,1.62-3.71,1.78-5.95.23-2.47.15-6.41-2.86-7.26-.93-.23-2.01-.39-2.93-.46-.85-.15-1.47,0-2.01,0-.39,0-.77-.23-1.16-.31-3.24-.23-6.79-.15-9.96.54,1,2.08,2.01,4.86,2.08,7.57,0,1.24.54,2.7.31,3.86.85,1.16.62,2.55,1.16,4.02.54.08,1.08,0,1.62-.15Z"/>
      <path class="cls-1" d="m118.36,69.36c-1.54,0-2.93-.31-4.63-.31,0-.08.08-.08.08-.15-1.24-.15-2.86-.85-4.25-1.39-2.16-1.54-4.32-3.32-6.33-5.33l.23-.23c-1.08-.93-1.62-2.39-2.47-3.47-.08-.08-.31-.08-.39-.15-.08-.15-.15-.62-.23-.77-.23-.39-.46-1-.77-1.47-.23-.39-.62-.54-.85-.93-.15-.31-.15-.77-.31-1.16-.08-.08-.31-.15-.39-.23-.54-1.16-.77-2.62-1.24-3.78,0-.15-.15-.31-.31-.31.31-.23,0-.62.15-.85-.93-1.39-.62-3.55-1.16-5.4.46-.31-.08-1.39.31-1.85,0-.08-.15-.08-.31-.08.31-.54.46-1.54,0-2.32h.31c0-1.16.39-2.24.15-3.4.15-.08.15,0,.31,0,0-1.31.39-1.78.46-3.01.31,0,.15-.54.46-.62.46-3.32,3.09-5.17,4.09-8.18,1.16-1.31,1.93-2.78,3.4-3.86.23-.39.54-.93.77-1.16.85-.93,1.85-1,2.86-1.7,1.39-.39,3.32-.69,5.33-1,3.17-.62,6.33-1.39,9.11-1.78,1.85-.23,4.48.85,6.64.85.85,0,1.31-.15,1.85.62h.54c1.08,1,2.93,1.93,4.71,2.24.62.54,1.39,1,1.93,1.54-.08.39.31.23.23.62,1.47.93,2.39,2.93,3.09,4.4.46-.15.77.31.93.15.23,1.16-1.16,1.31-1.85,1.93-.46.39-.7,1-1.31,1.47-.15.15-.46.23-.62.39-.54.39-1.16.77-2.01,1.16-.15,0-.08.15-.08.23-.62.15-1.08.46-1.62.69-1.93,1-3.78,2.01-5.94,2.7-.7-.39-.62-1.62-1-2.32-.08-.08-.46-.15-.7-.39-1.16-2.78-4.32-3.63-7.41-4.48-1.31-.77-4.25-.08-5.64.62-.85.46-1.31,1.47-2.16,1.62-.23,1-2.01,1.31-2.08,2.39-1.39,1-.85,2.39-1.93,4.01-.46.69-.46,1.39-.85,2.32-.39.85-1.31,1.47-1.08,2.39-.31.31-.23,1.78-.08,2.16-.23,1.7-.39,4.17.23,5.02-.23.23-.15.23-.23.46,1.54,1.85,1.39,4.32,3.17,5.64.93,2.01,3.24,2.78,5.33,3.94,1.93,1,4.09,2.24,7.03,1.93.08.23-.08.23-.08.39,3.09-.39,5.48-1.08,8.26-2.62.15-.46.62-.54.93-.77.08-.08,0-.23.08-.31.08-.15.46-.23.62-.39.23-.23.31-.62.85-.62-.08-.7.39-.85.46-1.39,1.93.08,2.62,1.85,4.55,1.7-.15.54.46.15,1,.39.15.31-.08.31.15.54h.7c-.15.15-.15.23,0,.39.23-.23.69-.08,1,0,0,0-.08.08-.08.23.54.39,1.85.69,2.47,1.31-.08,1.54-1.08,2.93-1.85,4.09h-.46c-.23.23.15.08.15.39-1.7,1.47-3.86,2.47-5.48,3.94-1.16.23-2.08.7-3.01,1.16-1.31,0-3.24,1.08-4.86.85-.46.46-1,.31-1.62.46-1.24.23-2.08,1-3.17,1.24-.69.16-1.93.31-2.62.16-.46-.08-.93-.46-1.47-.54Z"/>
      <path class="cls-1" d="m210.13,68.82c-.54.31-.93,0-1.62.08,0-.31-.62-.08-.69-.31-.39.31-1-.08-1.7-.15-.46,0-.93.08-1.08-.54-.08-.46.31-1.31.39-1.85.08-1.93.08-4.55,0-7.03-.15-3.78.39-7.03-.62-10.66.08-1.62-.46-4.01-.23-5.56.08-.23-.46.08-.31-.31h.23c-.08-.62.08-1.78-.23-2.55.23-1.62.31-4.48-.08-5.87.46-2.93-.31-5.33.23-7.57,0-.15-.15-.08-.23-.15.46-2.86.08-6.33-.54-9.88,0-.23.23-.23.23-.39,1.93.39,3.32-.62,5.02-.39.23.08.23-.15.46-.15,1,.08,1.47.39,2.55.54.15,0,.23-.08.23-.31.62.39,1.7.23,2.16.39.31.15.23.54.7.54-.08.31.23.85.62.93-.08.93.85,1.54,1,2.62.39.77.7,1.7,1.54,2.08-.39.15.93,1.7,1.31,2.16.39.46.54,1.08.77,1.47.85,1.47,2.01,2.86,2.55,3.63.54.77.93,1.47,1.39,2.08.08.08.15.08.31.08.08.62.85,1.31,1.08,2.08,1.7,2.16,3.09,4.32,4.25,7.03.08.15.15.31.39.31.08.62.7,1.7.93,2.55l.08.31c.39.93.62,1.85,1.24,2.62,0,1,.85.93.93,1.85.31-.08-.08-.77.39-.62-.54-.93.08-2.16-.23-3.01-.08-.23.08-.31.23-.31,0-.08-.15-.08-.23-.08.15-1-.08-1.39.08-2.39.15,0,.31,0,.39-.08-.46-.15-.31-.46-.39-1,.15,0,.15.08.23.15.23-.08-.31-.46.08-.46-.15-.08-.23-.23-.31-.39.31-1.78.46-3.63.69-5.56,0-.08-.08-.15-.23-.15.31-.54.23-1.16.23-1.85.15-.08.15.08.15.23.31-.39-.39-.85.16-1.08-.7-.15.08-1.16-.39-1.24.08-.23.08-.39.23-.54.08-3.24,0-5.17.31-8.42-.39-1.31.69-3.55,0-5.1.39-.85,2.24-.15,2.55-.69,2.24-.15,4.32.39,7.03.69.16.23.16.54.23.85-.31.85-.54,2.16-.7,3.4-.08,1.16-.31,2.47-.39,3.78-.15,1.85-.46,3.63-.15,4.94-.39.93-.08,2.47,0,3.55,0,.08-.23.08-.23.08-.08.69.23,1.47.23,2.08-.08,1.24-.54,2.55-.15,4.09-.08,2.32-.31,3.94-.23,7.1.08,3.32.62,6.72.15,9.11.08.15.08.46.23.54-.54,1.62,0,4.94-.15,7.1,0,.85-.31,2.01-.23,2.39,0,.08.08,2.32-.15,2.47,0,.31-2.39.23-3.47.23-.69,0-1.47-.23-2.08-.15-1.08.15-3.01.62-3.63-.15-.08-1.39-1-1.85-.93-2.93-.62-.39-.54-1.16-.93-1.78-.46-.77-1.47-.85-1.7-1.78-.23,0-.39-.08-.46-.15-.23-.62-.39-1.24-1.16-1.62.08-.39-.31-.93-.7-1.16-.23-.77-.62-1.54-1.24-2.08,0-.31-.23-.39-.31-.62,0-.15-.15-.23-.31-.23.08-.15-.08-.62-.46-.62,0-.54-.15-.85-.69-.93-.23-1.31-1.62-2.16-1.7-3.47-1-.54-1.08-2.24-2.01-2.7-.54-1.7-1.93-3.4-2.55-5.33,0-.15-.16-.08-.23-.15-.08-.39-.15-.85-.54-1,0-.15.08-.15.15-.15-.08-.23-.31-.39-.62-.46.16-1.16-.54-1.31-.77-2.47-.31.93.31,2.08-.08,2.86,0,.08.15.08.31.08-.39,2.08.62,4.32.77,6.64.69,3.55,1,6.41,2.01,9.5.46,4.17,1.08,8.03,1,11.35-.46.31-1.31.15-1.62.54-.77-.39-1.78-.15-2.55.23-2.08-.08-4.4,0-6.18-.77Z"/>
      <path class="cls-1" d="m268.57,69.36c-.15,0-.15-.15-.15-.31-1.24.08-2.39.15-3.4-.15-2.55.54-3.78.23-6.79.15-2.01,0-1.54.23-2.86.23-.46,0-.77.08-1.31.15-.46.08-.93.08-1.16-.23-.93,0-1.7.31-2.24-.31.08-1.08.77-2.01.23-2.93.93-2.16.08-5.4.46-7.72.46-.31.31-.62.46-1.16l.54-.31c1.39.54,3.4,1.62,5.56,1.62.31,0,.23.23.39.31.69-.54,2.78.46,4.48,0-.08-.08-.15-.08-.31-.08.39-.15.08-1.39.08-2.24,0-1.7-.31-3.63-.31-5.17,0-1.85.31-5.17.31-7.33,0-.39-.08-.54,0-.85.15-.46.08-1.16.08-1.7,0-3.94.31-8.57.54-12.43-.85-.15-2.78.15-3.17-.62l-.7.23c-3.47-.23-2.93-1.24-6.87-.7-.54.08-.93.31-1.39-.15.08-.46.08-.62,0-1.08.08,0,.15.08.31.08-.62-.69-.46-1.62-.39-2.32-.54-2.55-.54-4.09-1-6.95.23-.23.54-.15.85,0,5.17-.15,6.25-.7,11.81-.62,4.79.08,9.73-.69,14.36-.46.31.08.69,0,1.08,0,3.55.15,4.01-1.39,7.57-.39.39-.46,1.31-.15,1.62.23l-.31.77c.23.23.15.46,0,.77.85,1.31,0,2.93,0,4.63,0,.31-.39,5.33-.77,6.41-.23.15-.54.23-.69.46-.93-.46-4.79-.31-5.95-.15-.39-.08-.15.31-.46.23,0-.08,0-.23-.08-.23-1.7,0-3.86.08-5.48-.08-.31,2.78.39,4.63.39,8.03,0,.15.31.08.31.23.39,2.01.16,4.01.31,5.87.15,1.78.23,3.32.46,5.02.08.93-.54,1.62-.54,2.39,0,.15.23.08.23.15.15.39.08,1.24.08,1.78.31,2.24,1.16,4.25.85,6.33,3.78.39,5.02.85,9.26-.23.31-.08,0,.08.08.23.39.08.54-.16.85-.16.31.39.93.62,1.39.93-.08,2.39-.31,3.4-.31,5.56-.77,1-.7,2.24-1,3.55-.77.62-9.03.62-10.66.77-1.16.08-2.08.23-2.93.15-.62-.08-1.31-.46-1.78,0-.46-.31-1.24-.23-1.93-.23Z"/>
      <path class="cls-1" d="m324.16,69.13c-.23.15-.39-.08-.62,0,0-.15,0-.39-.23-.39.08-.54.23-1.16-.23-1.08-.23-1.47-.93-2.55-1.08-4.25-.46-.54-.39-1.24-.54-1.93-.15-.62,0-1.16-.46-1.47-.23-1.47-.62-3.32-1.24-4.63-.7.08-1.16-.23-1.47.08-4.71.31-8.72-.46-13.43.23-.7,1.7-1.47,3.78-2.55,5.33l.31.31c-.85,2.08-1.24,3.55-1.47,5.94h-.39c.08.08.23.16.15.39-.39,0-.23.08-.15.23-.08,0-.23-.08-.39-.08.08.23.39.08.46.31,0,.31-.23.46-.46.62-1.54-.08-3.09.15-4.86.23.15-.39-.08-.23-.23-.46-.15.08-.08.39-.23.54-1.85.08-3.78,0-5.48-.31-.23.08-.15-.08-.15-.23-.39,0,.08.31-.31.23-.39-.23.23-.39-.23-.46.08-.46.54-1,.23-1.31.46-.23.08-.85.62-.93-.23-.62.31-1.16.39-1.78h.31c1.39-4.17,3.47-8.96,4.94-13.82h.31c.08-.46,0-.54.08-.93h.23c.23-1,.77-2.55.93-3.78.54,0,.62-1.39.62-1.93.31-.23.54-.69.39-1.24,1.7-5.25,2.86-10.81,4.48-15.67,0-.23-.16-.23-.16-.46.54-.31.31-1.47.77-1.78.15-1.54,1-3.32,1.24-5.02.31,0,.31-.39.7-.39.08-1,.69-1.54,1-2.78h.31c0-.39.23-.54.15-.93,2.39.15,5.71-.23,8.18.31,0,.23-.39-.08-.31.23.08.15.39-.15.39-.31,1.16.39,1.78-.23,2.78.15.31.46,0,1.31.85,1.54.39.85.39,1.47,1,2.01.31,1.16.7,2.86,1.16,4.32.15.54.31,1.24.85,1.47-.23.31,0,.77.15,1.08.46,1.16,1.39,2.39,1.78,3.47.16,0,.16.08.16.15,0,.15.08,0,.23,0,.39,2.47,1.78,4.17,2.32,6.33.62.93.69,2.39,1.54,3.09.46,1.08,1,2.78,1.7,3.94.39,1.39.85,3.09,1.31,4.25-.08.31.08,1,.39,1.23-.23.77.31,1.39.39,2.08.08.23-.08.62,0,.93.15.46.46.93.54,1.39.31,2.01,1.24,4.71,1.93,6.79.08.15.31.31.31.54.08.15,0,.39,0,.46.08.15.23.15.31.23.23.62.23,1.24.46,1.78.15.23.46.54.46,1,.08.23.39.23.54.39,0,1.16.69,1.93,1.24,2.78-.08.08-.15.15-.23.15.54.39,1.08.85,1.08,1.85-.39.39-1.16.15-1.31-.23-.62.23-2.24.08-3.09,0-.54.46-1.47.08-2.39.08-1.24,0-4.25.23-5.25.31-.7.08-1.24.54-1.7-.23Zm-17.06-21.08c.77.08,2.32-.46,3.17-.46.85.23,2.16-.23,3.32-.23.15-.08,0-.39.31-.31,1.47-.08,2.7-.39,4.32-.77-.93-2.55-1.78-6.1-3.09-7.57-.15-.62,0-1.7-.15-2.32-.7-2.01-1.39-3.94-2.08-5.79-.15.62-.62,1.31-.54,1.85l-.93.69c-1.08,3.09-1.24,5.95-2.78,8.49-.62,2.62-2.24,4.17-2.93,7.03.62-.08,1.16-.23,1.39-.62Z"/>
    </g>
  </g>
</svg>