<?xml version="1.0" encoding="UTF-8"?>
<svg id="Layer_2" data-name="Layer 2" xmlns="http://www.w3.org/2000/svg" viewBox="0 0 343.68 70.05">
  <defs>
    <style>
      .cls-1 {
        fill: #645ce6;
      }

      .cls-1, .cls-2, .cls-3 {
        stroke-width: 0px;
      }

      .cls-2 {
        fill: #a7a9ff;
      }

      .cls-3 {
        fill: #fff;
      }
    </style>
  </defs>
  <g id="Layer_1-2" data-name="Layer 1">
    <g>
      <g>
        <polygon class="cls-1" points="179.71 70.05 200.73 69.6 198.82 48.73 184.84 53.4 193.54 45 188.97 29.45 182.36 35.29 180.15 29.93 188.59 22.78 177.76 0 175.4 6.82 176.82 13.44 165.73 22.59 167.2 36.97 163.84 45.76 163.84 38.55 155.58 36.41 157.94 42.04 154.17 54.72 151.14 69.6 171.39 70.05 179.71 70.05"/>
        <polygon class="cls-2" points="175.89 65.76 189.9 65.76 189.24 56.06 178.79 59.13 177.47 57.07 184.67 48.65 182.15 41.27 177.91 46.34 173.31 35.11 173.31 47.64 167.72 54.53 163.42 51.41 159.33 65.34 171.68 65.76 175.89 65.76"/>
      </g>
      <path class="cls-3" d="m28.88,14.89l-5.65.05-5.53-.28-2.05,4.66-.84,5.04-1.43,4.84-2.26,4.57-1.22,4.92-1.38,4.86-2.07,4.63-1.2,4.92-2.04,4.65-1.69,4.77-1.52,5.04,5.93.26,5.9.3,1.66-4.49.91-4.55,1.81-4.19,4.91-.57,4.98.56,5.25-.77.84,5.02,1.02,4.65,1.77,4.29,4.64.7,4.79-.25,4.51-.35-1.92-4.54-1.16-5.11-2.12-4.74-1.61-4.94-2.52-4.59-1.73-4.89-1.73-4.89-2.08-4.76-1.64-4.93-2.11-4.76-1.45-5.14Zm-11.73,32.74l1.6-4.36,1.88-4.48,2.23-4.34,1.39-4.99,2.15,5.36,1.11,5.45,2.13,5.24-6.32,1.48-6.19.65Z"/>
      <path class="cls-3" d="m323.1,15.22l-5.4-.81-5.74-.04-1.86,4.95-1.48,4.83-1.33,4.88-1.98,4.67-1.01,4.99-2.17,4.6-1.55,4.81-1.56,4.8-.94,5.01-1.53,4.82-1.62,4.45,5.47.19,5.71.47,1.42-4.33,1.69-4.28,1.21-4.65,5.14-.14,4.98.33,4.82-.02,1.54,4.34.9,4.68,1.25,4.83,5.02-.13,4.79-.44,4.8.35-1.67-4.93-2.12-4.74-1.78-4.87-1.42-5.01-2.59-4.56-2.02-4.78-1.2-5.09-2.23-4.7-2.07-4.77-1.39-5.03-2.08-4.65Zm-11.74,32.73l2.34-4.49,1.71-4.55,1.91-4.48,1.27-4.34,1.76,4.89,1.39,5.36,2.34,5.13-6.45.65-6.27,1.83Z"/>
      <path class="cls-3" d="m85.09,48.27l4.74-2.27,3.42-4.05,1.38-5.06.32-5.17-.1-4.95-2.97-4-3.52-3.41-4.09-2.87-5.49-.69-5.47-.36-5.46-.54-5.48-.23-5.49.52-5.27.11,1.14,4.52-.46,4.98.77,4.88-.39,4.94.66,4.9-.12,4.93v4.92s-.11,4.92-.11,4.92l.27,4.92v4.92s.15,4.48.15,4.48l6.22.35,6.47-.34-.74-4.94-.15-4.76-.27-4.76.44-4.72,3.82.37,4.06-.13,2.61,4.96,2.76,4.75,2.47,4.92,2.83,5.02,4.54-.62,4.46.04,4.32-.96-2.07-4.06-2.57-3.87-2.54-3.9-3.06-3.57-2.05-4.08Zm-3.67-8.97l-5.69.41-5.68.54-5.89.5-.67-5.38.33-5.42-.94-5.41,5.27.27,4.98.92,5.04.29,4.94.94,3.12,2.5.59,3.87-1.52,3.92-3.88,2.05Z"/>
      <polygon class="cls-3" points="100.47 43.85 101.06 38.66 101.97 33.58 103.87 28.79 105.87 24.11 108.47 19.62 112.8 16.75 117.45 15 122.3 14.07 127.22 13.32 132.12 14.17 136.86 15.34 141.22 17.63 144.71 21.12 147.93 25.07 143.46 28.04 138.97 30.48 134.35 33.19 131.15 28.52 126.76 25.2 121.15 25.43 116.27 28.14 113.59 33.02 111.86 38.26 111.09 43.8 112.72 49.19 115.92 53.09 120.1 55.89 124.74 57.79 129.7 57.26 134.23 55.3 138.26 52.59 143.01 54.57 147.71 56.89 145.05 60.98 141.33 64.6 136.62 66.95 131.37 67.27 126.54 68.07 121.67 67.62 117.07 66.01 112.58 64.22 108.71 61.3 105.88 57.38 103.73 53.08 101.67 48.66 100.47 43.85"/>
      <polygon class="cls-3" points="210.27 66.98 210.39 61.89 210.35 56.74 209.83 51.61 209.27 46.48 209.88 41.32 209.45 36.19 209.15 31.05 209.07 25.91 208.66 20.77 208.93 15.73 214.81 16.23 220.61 17.08 223.53 21.07 225.63 25.72 228.71 29.82 230.86 34.45 233.22 38.97 235.94 43.28 238.64 47.9 238.88 42.32 239.09 36.98 238.93 31.62 239.86 26.31 239.45 20.94 240.06 15.62 244.79 15.4 249.86 15.47 249.26 20.9 249.24 26.06 248.7 31.19 248.83 36.35 248.29 41.49 248.94 46.66 248.4 51.8 248.09 56.95 247.85 62.1 248.12 67.39 243.38 67.7 238.69 67.34 236.26 63 234.26 58.51 231.7 54.34 228.72 50.41 226.51 46.04 224.21 41.71 221.51 37.25 222.42 42.59 222.68 47.71 223.36 52.78 224.39 57.8 224.59 62.94 225.93 68.21 220.49 67.99 215.36 67.48 210.27 66.98"/>
      <polygon class="cls-3" points="255.77 68.09 256.04 62.09 256.81 55.99 262.48 57.07 267.84 57.67 268.06 52.88 268.13 47.91 267.83 42.94 268.39 37.98 268.76 33.02 268.09 28.32 262.31 27.31 255.91 27.18 255.79 21.66 255.3 16.67 260.47 16.03 265.82 16.6 271.12 15.71 276.44 15.54 281.79 16.09 287.13 15.93 292.65 15.07 292.13 19.69 291.68 24.06 290.5 28.09 284.68 28.62 278.97 28.43 279.23 33.07 279.29 38.06 279.37 43.04 280.48 47.95 280.72 52.93 280.74 57.98 286.56 58.62 292.08 58.99 291.68 63.24 291.3 68.11 286.02 67.48 281 67.8 275.97 68 270.94 67.98 265.92 68.28 260.88 67.84 255.77 68.09"/>
    </g>
  </g>
</svg>