<svg width="503" height="452" viewBox="0 0 503 452" fill="none" xmlns="http://www.w3.org/2000/svg">
<path d="M198 215L94.0933 82L42 215H198Z" fill="#F4900C"/>
<path d="M251.007 53L159 227H343L251.007 53Z" fill="#F4900C"/>
<path d="M305 215L408.907 82L461 215H305Z" fill="#F4900C"/>
<path d="M401.134 188.474L334.066 25.014L251.598 188.488L251.5 188.53L251.402 188.474L168.934 25L101.866 188.474C57.9113 127.43 17 88.3272 17 88.3272C17 88.3272 41.1232 266.372 41.1232 438H461.877C461.877 266.372 486 88.3272 486 88.3272C486 88.3272 445.089 127.43 401.134 188.474Z" fill="#FFCC4D"/>
<path d="M251 336C279.719 336 303 312.719 303 284C303 255.281 279.719 232 251 232C222.281 232 199 255.281 199 284C199 312.719 222.281 336 251 336Z" fill="#5C913B"/>
<path d="M370 318C388.778 318 404 302.778 404 284C404 265.222 388.778 250 370 250C351.222 250 336 265.222 336 284C336 302.778 351.222 318 370 318Z" fill="#981CEB"/>
<path d="M459.5 312C474.688 312 487 299.464 487 284C487 268.536 474.688 256 459.5 256C444.312 256 432 268.536 432 284C432 299.464 444.312 312 459.5 312Z" fill="#DD2E44"/>
<path d="M132 318C150.778 318 166 302.778 166 284C166 265.222 150.778 250 132 250C113.222 250 98 265.222 98 284C98 302.778 113.222 318 132 318Z" fill="#981CEB"/>
<path d="M42 312C57.464 312 70 299.464 70 284C70 268.536 57.464 256 42 256C26.536 256 14 268.536 14 284C14 299.464 26.536 312 42 312Z" fill="#DD2E44"/>
<path d="M461.969 452H41.0312C37.3099 452 33.741 450.521 31.1097 447.889C28.4783 445.257 27 441.687 27 437.964C27 434.242 28.4783 430.672 31.1097 428.04C33.741 425.407 37.3099 423.929 41.0312 423.929H461.969C465.69 423.929 469.259 425.407 471.89 428.04C474.522 430.672 476 434.242 476 437.964C476 441.687 474.522 445.257 471.89 447.889C469.259 450.521 465.69 452 461.969 452ZM461.969 403.071H41.0312C37.3099 403.071 33.741 401.593 31.1097 398.96C28.4783 396.328 27 392.758 27 389.036C27 385.313 28.4783 381.743 31.1097 379.111C33.741 376.479 37.3099 375 41.0312 375H461.969C465.69 375 469.259 376.479 471.89 379.111C474.522 381.743 476 385.313 476 389.036C476 392.758 474.522 396.328 471.89 398.96C469.259 401.593 465.69 403.071 461.969 403.071Z" fill="#FFAC33"/>
<path d="M19.5 108C30.2696 108 39 99.2695 39 88.5C39 77.7304 30.2696 69 19.5 69C8.73045 69 0 77.7304 0 88.5C0 99.2695 8.73045 108 19.5 108Z" fill="#FFCC4D"/>
<path d="M94 99C103.389 99 111 91.6127 111 82.5C111 73.3873 103.389 66 94 66C84.6112 66 77 73.3873 77 82.5C77 91.6127 84.6112 99 94 99Z" fill="#F4900C"/>
<path d="M169 50C182.807 50 194 38.8071 194 25C194 11.1929 182.807 0 169 0C155.193 0 144 11.1929 144 25C144 38.8071 155.193 50 169 50Z" fill="#FFCC4D"/>
<path d="M483.5 108C494.27 108 503 99.2695 503 88.5C503 77.7304 494.27 69 483.5 69C472.73 69 464 77.7304 464 88.5C464 99.2695 472.73 108 483.5 108Z" fill="#FFCC4D"/>
<path d="M409 99C418.389 99 426 91.6127 426 82.5C426 73.3873 418.389 66 409 66C399.611 66 392 73.3873 392 82.5C392 91.6127 399.611 99 409 99Z" fill="#F4900C"/>
<path d="M334 50C347.807 50 359 38.8071 359 25C359 11.1929 347.807 0 334 0C320.193 0 309 11.1929 309 25C309 38.8071 320.193 50 334 50Z" fill="#FFCC4D"/>
<path d="M251 78C264.807 78 276 66.8071 276 53C276 39.1929 264.807 28 251 28C237.193 28 226 39.1929 226 53C226 66.8071 237.193 78 251 78Z" fill="#F4900C"/>
</svg>
